<svg xmlns="http://www.w3.org/2000/svg" viewBox="0 0 500 500"><g id="freepik--Shadows--inject-138"><path d="M206.62,417l56.71,32.74a20,20,0,0,0,20.06,0l45.28-26.34a5,5,0,0,0,0-8.66L269.6,380.63Z" style="fill:#e0e0e0"></path><path d="M59.07,354.85l119.47,68.94a16.33,16.33,0,0,0,16.35,0L385.73,313.55a5.3,5.3,0,0,0,0-9.19l-123-71.11L59.07,350.83A2.32,2.32,0,0,0,59.07,354.85Z" style="fill:#e0e0e0"></path><path d="M425.53,366.59c-21.84-12.61-57.13-12.61-78.82,0s-21.58,33,.25,45.65,57.13,12.61,78.82,0S447.36,379.19,425.53,366.59Z" style="fill:#e0e0e0"></path><path d="M140.4,386.07l9,5.2L108.32,415a4,4,0,0,1-4,0l-4-2.31a2,2,0,0,1,0-3.47Z" style="fill:#e0e0e0"></path></g><g id="freepik--Screen--inject-138"><path d="M287.25,76.79l.39,137.39a8.57,8.57,0,0,1-3.89,6.73L90.58,332.44v4.42l-4.73-3h0l-.14-.08,0,0a2.8,2.8,0,0,1-1-2.4l-.4-143.27,4.87,3.08Z" style="fill:#f5f5f5"></path><path d="M88.15,175.39,283.3,62.72a2.59,2.59,0,0,1,3-.09v0l4.62,2.9-3.7,2.11v9.17L89.16,191.16l-4.87-3.08,0-6A8.54,8.54,0,0,1,88.15,175.39Z" style="fill:#FFC100"></path><path d="M89.16,191.16l.4,143.27c0,2.48,1.76,3.47,3.91,2.23L288.62,224a8.57,8.57,0,0,0,3.89-6.73L292.11,74Z" style="fill:#f5f5f5"></path><path d="M286.5,70A3.75,3.75,0,0,0,284.8,73c0,1.08.77,1.52,1.71,1a3.74,3.74,0,0,0,1.7-3C288.21,69.92,287.44,69.49,286.5,70Z" style="fill:#f5f5f5"></path><path d="M281.54,72.89a3.77,3.77,0,0,0-1.7,3c0,1.07.77,1.52,1.71,1a3.71,3.71,0,0,0,1.7-2.94C283.25,72.78,282.49,72.35,281.54,72.89Z" style="fill:#f5f5f5"></path><path d="M276.58,75.75a3.77,3.77,0,0,0-1.7,3c0,1.08.77,1.52,1.71,1a3.7,3.7,0,0,0,1.7-2.94C278.29,75.64,277.53,75.21,276.58,75.75Z" style="fill:#f5f5f5"></path><path d="M288.17,65.8c2.16-1.25,3.91-.25,3.92,2.22l0,6-203,117.17,0-6A8.54,8.54,0,0,1,93,178.47Zm-6.62,11a3.71,3.71,0,0,0,1.7-2.94c0-1.09-.76-1.52-1.71-1a3.77,3.77,0,0,0-1.7,3c0,1.07.77,1.52,1.71,1m-5,2.86a3.7,3.7,0,0,0,1.7-2.94c0-1.09-.76-1.52-1.71-1a3.77,3.77,0,0,0-1.7,3c0,1.08.77,1.52,1.71,1M286.51,74a3.74,3.74,0,0,0,1.7-3c0-1.08-.77-1.51-1.71-1A3.75,3.75,0,0,0,284.8,73c0,1.08.77,1.52,1.71,1" style="fill:#FFC100"></path><g style="opacity:0.2"><path d="M288.17,65.8c2.16-1.25,3.91-.25,3.92,2.22l0,6-203,117.17,0-6A8.54,8.54,0,0,1,93,178.47Zm-6.62,11a3.71,3.71,0,0,0,1.7-2.94c0-1.09-.76-1.52-1.71-1a3.77,3.77,0,0,0-1.7,3c0,1.07.77,1.52,1.71,1m-5,2.86a3.7,3.7,0,0,0,1.7-2.94c0-1.09-.76-1.52-1.71-1a3.77,3.77,0,0,0-1.7,3c0,1.08.77,1.52,1.71,1M286.51,74a3.74,3.74,0,0,0,1.7-3c0-1.08-.77-1.51-1.71-1A3.75,3.75,0,0,0,284.8,73c0,1.08.77,1.52,1.71,1" style="fill:#fff"></path></g><path d="M89.56,334.43a2.77,2.77,0,0,0,1,2.4v0l-4.73-3h0l-.14-.08,0,0a2.8,2.8,0,0,1-1-2.4l-.4-143.27,4.87,3.08Z" style="opacity:0.1"></path><path d="M88.15,175.39,283.3,62.72a2.59,2.59,0,0,1,3-.09v0l4.6,2.9a2.76,2.76,0,0,0-2.74.29L93,178.47a8.54,8.54,0,0,0-3.88,6.72l0,6-4.87-3.08,0-6A8.54,8.54,0,0,1,88.15,175.39Z" style="fill:#fff;opacity:0.5"></path><path d="M243,138.63l7.24,14.74-5.73,3.3L243.37,154l-6.24,3.61-1.1,3.92-5.63,3.25,7.13-23Zm-4.34,13.53,3.2-1.85-1.61-3.83-1.59,5.68" style="fill:#FFC100"></path><path d="M223.57,149.4a12.18,12.18,0,0,1,6.21-1.94L228.12,153a9.12,9.12,0,0,0-4.58,1.25c-1.63.94-2.14,1.78-2.13,2.41,0,2.26,9.09-4.87,9.11,2.1,0,3.46-2.54,7.83-7.65,10.78-2.73,1.58-5.51,2.42-7.16,2.21l1.77-5.69a9.61,9.61,0,0,0,5.43-1.39c1.57-.9,2.13-1.61,2.13-2.26,0-2.37-9.08,4.77-9.1-2.28C215.93,156.67,218.48,152.34,223.57,149.4Z" style="fill:#FFC100"></path><polygon points="256.61 130.75 256.65 144.7 264.07 140.42 264.09 145.36 251.12 152.85 251.06 133.96 256.61 130.75" style="fill:#FFC100"></polygon><polygon points="278.92 117.87 278.94 122.67 271.02 127.24 271.03 129.47 277.99 125.45 278 130.02 271.04 134.04 271.05 136.53 279.28 131.78 279.29 136.58 265.62 144.47 265.56 125.58 278.92 117.87" style="fill:#FFC100"></polygon><path d="M229.4,195.5c1.9-.29,3,.67,3,2.9,0,3.25-2.38,6.54-6.89,9.14l-9.17,5.3-.05-18.73,8.72-5c4.49-2.59,6.59-1.73,6.6,1.1A8.3,8.3,0,0,1,229.4,195.5Zm-4.32,7.89a3,3,0,0,0,1.81-2.52c0-1-.62-1.11-1.82-.42l-3.3,1.91v2.93l3.3-1.9m-3.33-8v2.8l2.55-1.48a2.88,2.88,0,0,0,1.79-2.44c0-.91-.56-1.06-1.8-.35l-2.55,1.47" style="fill:#FFC100"></path><polygon points="247.57 176.06 247.59 180.82 239.74 185.35 239.75 187.56 246.65 183.57 246.66 188.11 239.76 192.09 239.77 194.56 247.93 189.85 247.94 194.61 234.38 202.44 234.33 183.71 247.57 176.06" style="fill:#FFC100"></polygon><path d="M256.83,170.29a12.08,12.08,0,0,1,6.16-1.92l-1.65,5.53a8.81,8.81,0,0,0-4.54,1.24c-1.61.93-2.12,1.76-2.12,2.38,0,2.25,9-4.82,9,2.09,0,3.41-2.53,7.77-7.58,10.69-2.73,1.57-5.47,2.39-7.1,2.17l1.75-5.62a9.55,9.55,0,0,0,5.39-1.38c1.55-.9,2.11-1.6,2.11-2.24,0-2.35-9,4.74-9-2.25C249.24,177.51,251.78,173.21,256.83,170.29Z" style="fill:#FFC100"></path><polygon points="278.88 157.98 278.9 162.88 274.13 165.63 274.17 179.47 268.68 182.63 268.64 168.8 263.86 171.57 263.84 166.67 278.88 157.98" style="fill:#FFC100"></polygon><path d="M221,215.3c2.28-1.32,3.75-.79,3.75,1.4a6.91,6.91,0,0,1-3.73,5.72l-1.19.69v2.32L217,227l0-9.44Zm-.17,4.77a2,2,0,0,0,1.12-1.75c0-.69-.36-.9-1.12-.46l-1,.58v2.21l1-.58" style="fill:#FFC100"></path><path d="M231.78,215.59l1.73,1.92-3,1.71-1.4-1.56-.75.43v2.37l-2.76,1.6,0-9.45,4-2.28c2.29-1.33,3.75-.79,3.75,1.4A6,6,0,0,1,231.78,215.59Zm-2.38-.49a2,2,0,0,0,1.13-1.76c0-.69-.37-.89-1.13-.45l-1,.58v2.21l1-.58" style="fill:#FFC100"></path><path d="M238.67,204.86c2.68-1.55,4.65-.61,4.66,2.26a9.49,9.49,0,0,1-4.63,7.62c-2.68,1.55-4.64.59-4.65-2.26A9.41,9.41,0,0,1,238.67,204.86Zm0,7.3a4,4,0,0,0,1.83-3.42c0-1.47-.82-1.89-1.84-1.3a4,4,0,0,0-1.84,3.42c0,1.47.83,1.89,1.85,1.3" style="fill:#FFC100"></path><path d="M248.37,199.47c2.75-1.59,4.65-.88,4.66,2.05a8.91,8.91,0,0,1-4.63,7.4l-4.05,2.33,0-9.45Zm-.09,7a3.9,3.9,0,0,0,2-3.37c0-1.45-.81-1.78-2-1.1l-1.16.67v4.47l1.17-.67" style="fill:#FFC100"></path><path d="M262,191.62v5.19a7.72,7.72,0,0,1-4,6.79c-2.52,1.46-4,.67-4-2.16v-5.2l2.77-1.6,0,5.1c0,1.45.48,1.71,1.26,1.27a2.83,2.83,0,0,0,1.25-2.72v-5.1Z" style="fill:#FFC100"></path><path d="M267.49,188.22c1.61-.93,2.88-1,3.69-.24l-1.74,2.8a1.41,1.41,0,0,0-1.8-.06,4,4,0,0,0-1.92,3.47c0,1.44.78,1.91,1.93,1.25a4.83,4.83,0,0,0,1.8-2.15l1.75.79a9.29,9.29,0,0,1-3.68,4c-2.64,1.53-4.59.6-4.6-2.3A9.34,9.34,0,0,1,267.49,188.22Z" style="fill:#FFC100"></path><polygon points="278.89 181.85 278.89 184.32 276.49 185.71 276.51 192.69 273.73 194.29 273.71 187.31 271.31 188.7 271.3 186.23 278.89 181.85" style="fill:#FFC100"></polygon><g style="opacity:0.2"><path d="M243,138.63l7.24,14.74-5.73,3.3L243.37,154l-6.24,3.61-1.1,3.92-5.63,3.25,7.13-23Zm-4.34,13.53,3.2-1.85-1.61-3.83-1.59,5.68" style="fill:#fff"></path><path d="M223.57,149.4a12.18,12.18,0,0,1,6.21-1.94L228.12,153a9.12,9.12,0,0,0-4.58,1.25c-1.63.94-2.14,1.78-2.13,2.41,0,2.26,9.09-4.87,9.11,2.1,0,3.46-2.54,7.83-7.65,10.78-2.73,1.58-5.51,2.42-7.16,2.21l1.77-5.69a9.61,9.61,0,0,0,5.43-1.39c1.57-.9,2.13-1.61,2.13-2.26,0-2.37-9.08,4.77-9.1-2.28C215.93,156.67,218.48,152.34,223.57,149.4Z" style="fill:#fff"></path><polygon points="256.61 130.75 256.65 144.7 264.07 140.42 264.09 145.36 251.12 152.85 251.06 133.96 256.61 130.75" style="fill:#fff"></polygon><polygon points="278.92 117.87 278.94 122.67 271.02 127.24 271.03 129.47 277.99 125.45 278 130.02 271.04 134.04 271.05 136.53 279.28 131.78 279.29 136.58 265.62 144.47 265.56 125.58 278.92 117.87" style="fill:#fff"></polygon><path d="M229.4,195.5c1.9-.29,3,.67,3,2.9,0,3.25-2.38,6.54-6.89,9.14l-9.17,5.3-.05-18.73,8.72-5c4.49-2.59,6.59-1.73,6.6,1.1A8.3,8.3,0,0,1,229.4,195.5Zm-4.32,7.89a3,3,0,0,0,1.81-2.52c0-1-.62-1.11-1.82-.42l-3.3,1.91v2.93l3.3-1.9m-3.33-8v2.8l2.55-1.48a2.88,2.88,0,0,0,1.79-2.44c0-.91-.56-1.06-1.8-.35l-2.55,1.47" style="fill:#fff"></path><polygon points="247.57 176.06 247.59 180.82 239.74 185.35 239.75 187.56 246.65 183.57 246.66 188.11 239.76 192.09 239.77 194.56 247.93 189.85 247.94 194.61 234.38 202.44 234.33 183.71 247.57 176.06" style="fill:#fff"></polygon><path d="M256.83,170.29a12.08,12.08,0,0,1,6.16-1.92l-1.65,5.53a8.81,8.81,0,0,0-4.54,1.24c-1.61.93-2.12,1.76-2.12,2.38,0,2.25,9-4.82,9,2.09,0,3.41-2.53,7.77-7.58,10.69-2.73,1.57-5.47,2.39-7.1,2.17l1.75-5.62a9.55,9.55,0,0,0,5.39-1.38c1.55-.9,2.11-1.6,2.11-2.24,0-2.35-9,4.74-9-2.25C249.24,177.51,251.78,173.21,256.83,170.29Z" style="fill:#fff"></path><polygon points="278.88 157.98 278.9 162.88 274.13 165.63 274.17 179.47 268.68 182.63 268.64 168.8 263.86 171.57 263.84 166.67 278.88 157.98" style="fill:#fff"></polygon><path d="M221,215.3c2.28-1.32,3.75-.79,3.75,1.4a6.91,6.91,0,0,1-3.73,5.72l-1.19.69v2.32L217,227l0-9.44Zm-.17,4.77a2,2,0,0,0,1.12-1.75c0-.69-.36-.9-1.12-.46l-1,.58v2.21l1-.58" style="fill:#fff"></path><path d="M231.78,215.59l1.73,1.92-3,1.71-1.4-1.56-.75.43v2.37l-2.76,1.6,0-9.45,4-2.28c2.29-1.33,3.75-.79,3.75,1.4A6,6,0,0,1,231.78,215.59Zm-2.38-.49a2,2,0,0,0,1.13-1.76c0-.69-.37-.89-1.13-.45l-1,.58v2.21l1-.58" style="fill:#fff"></path><path d="M238.67,204.86c2.68-1.55,4.65-.61,4.66,2.26a9.49,9.49,0,0,1-4.63,7.62c-2.68,1.55-4.64.59-4.65-2.26A9.41,9.41,0,0,1,238.67,204.86Zm0,7.3a4,4,0,0,0,1.83-3.42c0-1.47-.82-1.89-1.84-1.3a4,4,0,0,0-1.84,3.42c0,1.47.83,1.89,1.85,1.3" style="fill:#fff"></path><path d="M248.37,199.47c2.75-1.59,4.65-.88,4.66,2.05a8.91,8.91,0,0,1-4.63,7.4l-4.05,2.33,0-9.45Zm-.09,7a3.9,3.9,0,0,0,2-3.37c0-1.45-.81-1.78-2-1.1l-1.16.67v4.47l1.17-.67" style="fill:#fff"></path><path d="M262,191.62v5.19a7.72,7.72,0,0,1-4,6.79c-2.52,1.46-4,.67-4-2.16v-5.2l2.77-1.6,0,5.1c0,1.45.48,1.71,1.26,1.27a2.83,2.83,0,0,0,1.25-2.72v-5.1Z" style="fill:#fff"></path><path d="M267.49,188.22c1.61-.93,2.88-1,3.69-.24l-1.74,2.8a1.41,1.41,0,0,0-1.8-.06,4,4,0,0,0-1.92,3.47c0,1.44.78,1.91,1.93,1.25a4.83,4.83,0,0,0,1.8-2.15l1.75.79a9.29,9.29,0,0,1-3.68,4c-2.64,1.53-4.59.6-4.6-2.3A9.34,9.34,0,0,1,267.49,188.22Z" style="fill:#fff"></path><polygon points="278.89 181.85 278.89 184.32 276.49 185.71 276.51 192.69 273.73 194.29 273.71 187.31 271.31 188.7 271.3 186.23 278.89 181.85" style="fill:#fff"></polygon></g></g><g id="freepik--device-1--inject-138"><path d="M186.38,191.49h0c-.51-1.78-4.13-5.18-7.74-5.11a3.26,3.26,0,0,0-1,.2l-70,39.85a6.81,6.81,0,0,0-3.39,5.82v151.5c0,3.86,4.45,7.54,8.63,5.77l0,0a1.53,1.53,0,0,0,.27-.11l70-39.91a6.69,6.69,0,0,0,3.38-5.82V192.22A1.64,1.64,0,0,0,186.38,191.49Z" style="fill:#FFC100"></path><path d="M186.38,191.49h0c-.51-1.78-4.13-5.18-7.74-5.11a3.26,3.26,0,0,0-1,.2l-70,39.85a6.81,6.81,0,0,0-3.39,5.82v151.5c0,3.86,4.45,7.54,8.63,5.77l0,0a1.53,1.53,0,0,0,.27-.11l70-39.91a6.69,6.69,0,0,0,3.38-5.82V192.22A1.64,1.64,0,0,0,186.38,191.49Z" style="fill:#fff;opacity:0.30000000000000004"></path><path d="M114,248.27a3.36,3.36,0,0,1,1.7-2.92l65-37a1.67,1.67,0,0,1,2.5,1.45V332a3.37,3.37,0,0,1-1.69,2.92l-65,37.05a1.68,1.68,0,0,1-2.51-1.45Z" style="fill:#455a64"></path><path d="M104.21,232.25v151.5c0,3.86,4.45,7.54,8.63,5.77l0,0a1.67,1.67,0,0,1-2.24-1.56V236.44a6.68,6.68,0,0,1,1.14-3.7l-6.86-3.43A6.73,6.73,0,0,0,104.21,232.25Z" style="opacity:0.30000000000000004"></path><path d="M178.65,186.38a3.26,3.26,0,0,0-1,.2l-70,39.85a6.67,6.67,0,0,0-2.69,2.88l6.86,3.43a6.54,6.54,0,0,1,2.25-2.12l70-39.85a1.66,1.66,0,0,1,2.32.72h0C185.88,189.71,182.26,186.31,178.65,186.38Z" style="fill:#fff;opacity:0.1"></path><path d="M157.23,215.79c.49-.29.9-.07.9.5a2,2,0,0,1-.89,1.55l-13.74,7.93c-.5.29-.89,0-.89-.52a1.92,1.92,0,0,1,.88-1.53Z" style="fill:#263238"></path><path d="M140,225.76c.49-.29.89-.06.89.5a2,2,0,0,1-.88,1.55c-.5.28-.9.05-.9-.51A1.93,1.93,0,0,1,140,225.76Z" style="fill:#263238"></path><path d="M148.76,214.63c1-.56,1.77-.11,1.78,1a3.94,3.94,0,0,1-1.77,3.08c-1,.57-1.8.11-1.8-1A3.91,3.91,0,0,1,148.76,214.63Z" style="fill:#263238"></path><path d="M148.76,357.26c2-1.16,3.62-.24,3.63,2.06a8,8,0,0,1-3.6,6.29c-2,1.15-3.67.21-3.67-2.09A8,8,0,0,1,148.76,357.26Z" style="fill:#263238"></path></g><g id="freepik--Icons--inject-138"><path d="M197.89,180.06h0l-2.14-1.14h0a1,1,0,0,0-1-.07l-36.87,21a1.91,1.91,0,0,0-1,1.65v43.77a1,1,0,0,0,.61.88h0l2.16,1.16h0a1,1,0,0,0,.91,0l36.87-21a1.91,1.91,0,0,0,1-1.65V180.91A.94.94,0,0,0,197.89,180.06Z" style="fill:#FFC100"></path><path d="M197.89,180.06h0l-2.14-1.14h0a1,1,0,0,0-1-.07l-36.87,21a1.91,1.91,0,0,0-1,1.65v43.77a1,1,0,0,0,.61.88h0l2.16,1.16h0a1,1,0,0,0,.91,0l36.87-21a1.91,1.91,0,0,0,1-1.65V180.91A.94.94,0,0,0,197.89,180.06Z" style="fill:#fff;opacity:0.6000000000000001"></path><path d="M156.88,201.49v43.77a1,1,0,0,0,.61.88h0l2.16,1.16a.92.92,0,0,1-.47-.81V202.71a1.85,1.85,0,0,1,.15-.74l-2.26-1.3A1.9,1.9,0,0,0,156.88,201.49Z" style="fill:#FFC100;opacity:0.30000000000000004"></path><path d="M195.75,178.92h0a1,1,0,0,0-1-.07l-36.87,21a1.93,1.93,0,0,0-.77.83l2.26,1.3a1.93,1.93,0,0,1,.81-.91l36.87-21a.92.92,0,0,1,.88,0h0Z" style="fill:#fff;opacity:0.4"></path><path d="M182.28,195.38c.52-.3,1.09-.61,1.68-.9s1.18-.57,1.73-.79l0,5.16a2.22,2.22,0,0,0-.53.19l-.67.36a4,4,0,0,0-1.19,1.1,2.72,2.72,0,0,0-.51,1.63v1.5l2.9-1.67,0,5.53-2.9,1.67,0,19.2-7.15,4.13-.06-19.19-2.46,1.42,0-5.53,2.47-1.43V206a15.55,15.55,0,0,1,.33-3.36,8.76,8.76,0,0,1,1.11-2.72,10.26,10.26,0,0,1,2-2.34A20.7,20.7,0,0,1,182.28,195.38Z" style="fill:#fff"></path><path d="M147,230h0l-2.15-1.14h0a.94.94,0,0,0-1-.07l-36.87,21a1.92,1.92,0,0,0-1,1.66v43.77a1,1,0,0,0,.61.88h0l2.16,1.16h0a.93.93,0,0,0,.9,0l36.87-21a1.89,1.89,0,0,0,1-1.65V230.87A.94.94,0,0,0,147,230Z" style="fill:#FFC100"></path><path d="M147,230h0l-2.15-1.14h0a.94.94,0,0,0-1-.07l-36.87,21a1.92,1.92,0,0,0-1,1.66v43.77a1,1,0,0,0,.61.88h0l2.16,1.16h0a.93.93,0,0,0,.9,0l36.87-21a1.89,1.89,0,0,0,1-1.65V230.87A.94.94,0,0,0,147,230Z" style="fill:#fff;opacity:0.6000000000000001"></path><path d="M106,251.45v43.77a1,1,0,0,0,.61.88h0l2.16,1.16a.94.94,0,0,1-.47-.82V252.67a1.86,1.86,0,0,1,.16-.74l-2.26-1.3A1.9,1.9,0,0,0,106,251.45Z" style="fill:#FFC100;opacity:0.30000000000000004"></path><path d="M144.82,228.88h0a.94.94,0,0,0-1-.07l-36.87,21a1.89,1.89,0,0,0-.77.84l2.26,1.3a1.91,1.91,0,0,1,.8-.91l36.87-21a1,1,0,0,1,.88,0h0Z" style="fill:#fff;opacity:0.4"></path><polygon points="120.72 256.7 139.93 258.35 120.8 282.13 120.72 256.7" style="fill:#fff"></polygon><path d="M210.14,238.85h0L208,237.71h0a.94.94,0,0,0-1-.07l-36.87,21a1.91,1.91,0,0,0-1,1.65v43.77a.94.94,0,0,0,.61.88h0l2.16,1.16h0a.9.9,0,0,0,.9,0l36.87-21a1.89,1.89,0,0,0,1-1.65V239.7A.94.94,0,0,0,210.14,238.85Z" style="fill:#FFC100"></path><path d="M210.14,238.85h0L208,237.71h0a.94.94,0,0,0-1-.07l-36.87,21a1.91,1.91,0,0,0-1,1.65v43.77a.94.94,0,0,0,.61.88h0l2.16,1.16h0a.9.9,0,0,0,.9,0l36.87-21a1.89,1.89,0,0,0,1-1.65V239.7A.94.94,0,0,0,210.14,238.85Z" style="fill:#fff;opacity:0.6000000000000001"></path><path d="M169.14,260.28v43.77a.94.94,0,0,0,.61.88h0l2.16,1.16a.94.94,0,0,1-.47-.81V261.5a1.89,1.89,0,0,1,.16-.74l-2.26-1.3A1.9,1.9,0,0,0,169.14,260.28Z" style="fill:#FFC100;opacity:0.30000000000000004"></path><path d="M208,237.71h0a.94.94,0,0,0-1-.07l-36.87,21a1.87,1.87,0,0,0-.77.83l2.26,1.3a2,2,0,0,1,.8-.91l36.87-21a1,1,0,0,1,.88,0h0Z" style="fill:#fff;opacity:0.4"></path><path d="M199.19,259.22l0,0c.92-.5,1.66-.06,1.65,1a3.73,3.73,0,0,1-1.67,2.87l0,0a1,1,0,0,1-1.64-1A3.71,3.71,0,0,1,199.19,259.22Z" style="fill:#fff"></path><path d="M204.93,257.1a9.06,9.06,0,0,0,.23,1.06q0,7.47,0,14.93a8.16,8.16,0,0,0-.2,1.13,16.31,16.31,0,0,1-5.12,9c-.36.32-.73.53-1.09.88l-12.94,7.47a4.19,4.19,0,0,0-.89.29c-2.7.7-4.44-.26-5.23-2.9a5,5,0,0,0-.23-1q0-7.5,0-15c.09-.1.06-.18.07-.26a12.85,12.85,0,0,1,.81-3.29,15.13,15.13,0,0,1,6.29-7.85c1.58-.93,3.15-1.84,4.73-2.75l6.58-3.79a7.59,7.59,0,0,1,1.77-.79C202.4,253.5,204.14,254.46,204.93,257.1Zm-2,16.26q0-6.45,0-12.89a5.17,5.17,0,0,0-.26-1.78c-.73-1.93-2.5-2.34-4.7-1.07l-4.75,2.74-6.49,3.75a8,8,0,0,0-1.68,1.27,10.58,10.58,0,0,0-3.26,7.23q0,6.51,0,13c0,1.93.68,3.09,2,3.45a4,4,0,0,0,2.93-.66l1.88-1.09,3.73-2.15q2.79-1.61,5.57-3.22a8.36,8.36,0,0,0,1.73-1.29,10.62,10.62,0,0,0,3.26-7.29" style="fill:#fff"></path><path d="M192.31,265.4c3.64-2.09,6.63-.38,6.64,3.79a14.62,14.62,0,0,1-6.6,11.43c-3.64,2.1-6.63.39-6.64-3.79A14.64,14.64,0,0,1,192.31,265.4Zm4.36,5.14c0-2.74-1.9-3.87-4.32-2.53l-.08.05A9.57,9.57,0,0,0,188,275.5c0,2.75,1.93,3.86,4.34,2.51l0,0a9.58,9.58,0,0,0,4.29-7.44" style="fill:#fff"></path><path d="M160.19,289.63h0l-2.15-1.14h0a.94.94,0,0,0-1-.07l-36.87,21a1.89,1.89,0,0,0-1,1.65v43.78a.92.92,0,0,0,.6.87h0l2.16,1.16h0a1,1,0,0,0,.91,0l36.87-21a1.91,1.91,0,0,0,1-1.65V290.48A.94.94,0,0,0,160.19,289.63Z" style="fill:#FFC100"></path><path d="M160.19,289.63h0l-2.15-1.14h0a.94.94,0,0,0-1-.07l-36.87,21a1.89,1.89,0,0,0-1,1.65v43.78a.92.92,0,0,0,.6.87h0l2.16,1.16h0a1,1,0,0,0,.91,0l36.87-21a1.91,1.91,0,0,0,1-1.65V290.48A.94.94,0,0,0,160.19,289.63Z" style="fill:#fff;opacity:0.6000000000000001"></path><path d="M119.19,311.05v43.78a.92.92,0,0,0,.6.87h0l2.16,1.16a1,1,0,0,1-.47-.82V312.28a1.85,1.85,0,0,1,.15-.74l-2.25-1.3A1.89,1.89,0,0,0,119.19,311.05Z" style="fill:#FFC100;opacity:0.30000000000000004"></path><path d="M158.05,288.49h0a.94.94,0,0,0-1-.07l-36.87,21a1.84,1.84,0,0,0-.77.84l2.25,1.3a1.88,1.88,0,0,1,.81-.91l36.87-21a1,1,0,0,1,.88,0h0Z" style="fill:#fff;opacity:0.4"></path><path d="M147.89,307.53a4.11,4.11,0,0,1,3.9-.49.43.43,0,0,0,.47,0l.21-.16a24.76,24.76,0,0,0,3.23-3.36,14.54,14.54,0,0,1-2.33,5c.34-.27.67-.52,1-.8s.7-.61,1-.93.66-.66,1-1l.06,0c-.45.88-.89,1.77-1.37,2.63-.39.69-.84,1.34-1.25,2a1.06,1.06,0,0,0-.17.51,32.46,32.46,0,0,1-4,15.33,33.59,33.59,0,0,1-8.21,10.51,28.68,28.68,0,0,1-4,2.85,13.72,13.72,0,0,1-8.55,2.11l-.14-.05A14.23,14.23,0,0,0,130,341a17.73,17.73,0,0,0,3.14-2.3,25.28,25.28,0,0,0,3.94-4.56c-2.61,1.25-4.36.76-5.33-1.5a9.54,9.54,0,0,0,1.11-.55,8.54,8.54,0,0,0,1.35-1,8.28,8.28,0,0,1-1.38.14,3.08,3.08,0,0,1-1.26-.31,2.81,2.81,0,0,1-1-.83,4,4,0,0,1-.61-1.27,13.78,13.78,0,0,1-.28-1.65c.48-.07.88-.09,1.29-.19a6.65,6.65,0,0,0,1.25-.5c-1.37-.41-2.21-1.48-2.41-3.32a9.34,9.34,0,0,1,.73-4.43c3.09,2.38,7,2.42,11.77.05,0-.37-.09-.69-.11-1a11.76,11.76,0,0,1,2.8-7.69A10.21,10.21,0,0,1,147.89,307.53Z" style="fill:#fff"></path></g><g id="freepik--Character--inject-138"><path d="M393.37,188.64l1.42.22a18.66,18.66,0,0,1,14.91,12.41l9.92,28.92-11.72,5.38-9.85-21.74Z" style="fill:#455a64"></path><path d="M393.37,188.64l1.42.22a18.66,18.66,0,0,1,14.91,12.41l9.92,28.92-11.72,5.38-9.85-21.74Z" style="fill:#fff;opacity:0.1"></path><path d="M413.24,384.4a9.72,9.72,0,0,1-7.28,2.67,22.06,22.06,0,0,1-7.7-1.94c-2.46-1-5.55-3.85-8.21-3.79a65.19,65.19,0,0,1-7.79-.53,40.36,40.36,0,0,1,1.11-10.55l12.42-.33c3.36,4.6,9.88,8.42,14.82,9.85a4.35,4.35,0,0,1,3.07,3.27s0,.05,0,.08A5.54,5.54,0,0,1,413.24,384.4Z" style="fill:#455a64"></path><path d="M390.05,381.34c2.66-.06,5.75,2.78,8.21,3.79a22.06,22.06,0,0,0,7.7,1.94,9.72,9.72,0,0,0,7.28-2.67,5.54,5.54,0,0,0,.43-1.27s0-.05,0-.08a4,4,0,0,1,0,1.66,5.56,5.56,0,0,1-.43,1.26,9.69,9.69,0,0,1-7.28,2.68,22.06,22.06,0,0,1-7.7-1.94c-2.46-1-5.55-3.85-8.21-3.79a57.93,57.93,0,0,1-7.67-.45c-.06-.55-.1-1.11-.12-1.66A65.19,65.19,0,0,0,390.05,381.34Z" style="fill:#263238"></path><path d="M355,385.56a18.33,18.33,0,0,0,.37,3.77,8.75,8.75,0,0,0,3.45,5.5,11.1,11.1,0,0,0,5.47,1.46,12.08,12.08,0,0,0,5-.52,5.68,5.68,0,0,0,2.94-2.4.2.2,0,0,0,0,.07,5.25,5.25,0,0,1-3.38,3.51,12.08,12.08,0,0,1-5,.52,11.14,11.14,0,0,1-5.48-1.46,8.74,8.74,0,0,1-3.44-5.5,17.6,17.6,0,0,1-.38-3.77,6.34,6.34,0,0,0-2-4.6c-.31-.3-.61-.6-.88-.91a2.29,2.29,0,0,1-.54-1.65c0-.23.05-.46.08-.68.45.53,1.53,1.8,1.8,2.05A6.4,6.4,0,0,1,355,385.56Z" style="fill:#263238"></path><path d="M364.47,372.43a13.74,13.74,0,0,0,1,7.64,29.23,29.23,0,0,0,4.05,6.65,19.67,19.67,0,0,1,2.12,3.09,5.61,5.61,0,0,1,.6,3.56,5.68,5.68,0,0,1-2.94,2.4,12.08,12.08,0,0,1-5,.52,11.1,11.1,0,0,1-5.47-1.46,8.75,8.75,0,0,1-3.45-5.5,18.33,18.33,0,0,1-.37-3.77,6.4,6.4,0,0,0-2-4.61c-.27-.25-1.35-1.52-1.8-2.05a13.78,13.78,0,0,1,1.86-5.34Z" style="fill:#455a64"></path><path d="M401.18,249.67l-1,70.89-3.34,49.62c-8.47,5.35-14.6,1-14.6,1-3.21-23.5-3.65-38-1.9-47.74l-1.61-38.26-4.82,39.72-8.1,48.68c-8.69,5.63-14.82,0-14.82,0,0-18-1.6-38.17,3.36-51.16a298.8,298.8,0,0,1,2.34-72Z" style="fill:#FFC100"></path><path d="M401.18,249.67l-1,70.89-3.34,49.62c-8.47,5.35-14.6,1-14.6,1-3.21-23.5-3.65-38-1.9-47.74l-1.61-38.26-4.82,39.72-8.1,48.68c-8.69,5.63-14.82,0-14.82,0,0-18-1.6-38.17,3.36-51.16a298.8,298.8,0,0,1,2.34-72Z" style="opacity:0.30000000000000004"></path><path d="M401.18,249.67l-1,70.89-3.34,49.62c-8.47,5.35-14.6,1-14.6,1-3.21-23.5-3.65-38-1.9-47.74l-1.61-38.26-4.82,39.72-8.1,48.68c-8.69,5.63-14.82,0-14.82,0,0-18-1.6-38.17,3.36-51.16a298.8,298.8,0,0,1,2.34-72Z" style="fill:#fff;opacity:0.1"></path><path d="M380.47,270.55l-1.78,14.6.76,17.92,3.26-29.45c7.55-3,8.54-7.12,8.54-7.12A23.2,23.2,0,0,1,380.47,270.55Z" style="opacity:0.30000000000000004"></path><path d="M385.08,187.77l8.29.87c6.79,6,10.29,18.55,8.83,32.42a245.75,245.75,0,0,0-1,28.61c-18.4,13.44-41.61,3.65-44.53.73l1.36-17a11.68,11.68,0,0,0-.93-5.6c-1.74-4-4.84-12-5.25-18.13a32.06,32.06,0,0,1,3.36-15.84l12-5.26Z" style="fill:#455a64"></path><g style="opacity:0.1"><path d="M385.08,187.77l8.29.87c6.79,6,10.29,18.55,8.83,32.42a245.75,245.75,0,0,0-1,28.61c-18.4,13.44-41.61,3.65-44.53.73l1.36-17a11.68,11.68,0,0,0-.93-5.6c-1.74-4-4.84-12-5.25-18.13a32.06,32.06,0,0,1,3.36-15.84l12-5.26Z"></path></g><path d="M387.38,199.85a89.66,89.66,0,0,1,6.83,32.38l-3.42,7.33-5.34-7a277.42,277.42,0,0,0-.65-32.23Z" style="fill:#455a64"></path><path d="M387.67,193.83a24.72,24.72,0,0,1-.29,6,4.8,4.8,0,0,1-2.58.47,21.1,21.1,0,0,1-4.14-5l4.14-1.49Z" style="fill:#455a64"></path><g style="opacity:0.6000000000000001"><path d="M387.38,199.85a89.66,89.66,0,0,1,6.83,32.38l-3.42,7.33-5.34-7a277.42,277.42,0,0,0-.65-32.23Z" style="fill:#fff"></path><path d="M387.67,193.83a24.72,24.72,0,0,1-.29,6,4.8,4.8,0,0,1-2.58.47,21.1,21.1,0,0,1-4.14-5l4.14-1.49Z" style="fill:#fff"></path></g><path d="M384.8,193.83c-3.56,1.31-6.74,7.66-6.74,7.66-9.37-8-10.83-12.92-10.83-12.92a18.86,18.86,0,0,1,4.54-4.8Z" style="fill:#455a64"></path><path d="M384.8,193.83c2.73.07,5.14,3.87,5.14,3.87.43-6.65-5.14-11.76-5.14-11.76Z" style="fill:#455a64"></path><g style="opacity:0.35000000000000003"><path d="M384.8,193.83c-3.56,1.31-6.74,7.66-6.74,7.66-9.37-8-10.83-12.92-10.83-12.92a18.86,18.86,0,0,1,4.54-4.8Z" style="fill:#fff;opacity:0.1"></path><path d="M384.8,193.83c2.73.07,5.14,3.87,5.14,3.87.43-6.65-5.14-11.76-5.14-11.76Z" style="fill:#fff;opacity:0.1"></path></g><path d="M367.23,157a7.37,7.37,0,0,1,4.72-2.55l24.66,2.33c2.85,6.11.58,10.16.58,10.16.38,9.32.7,15.25-3.34,17.22a18.65,18.65,0,0,1-9,1.27,21.28,21.28,0,0,1-8.26-2.23l-.13-.07a7.06,7.06,0,0,1-3.54-4.71,39.58,39.58,0,0,1-.85-5.52,22,22,0,0,0-.34-3.15,5.62,5.62,0,0,0-1.38-2.79,3.18,3.18,0,0,0-2.85-1,2.18,2.18,0,0,0-.5.2C366.28,162,366.08,158.44,367.23,157Z" style="fill:#37474f"></path><path d="M376.26,157.7a8.73,8.73,0,0,1-.33,5.24,38.75,38.75,0,0,0-1.56,5.09,8.32,8.32,0,0,0,.68,5.14,6,6,0,0,0,3.93,3.19c2.64.57,5.23-1,7.89-1.52a10.92,10.92,0,0,1,7.43,1.33,1.28,1.28,0,0,0,1.94-1c.31-5.37.31-13.78-.48-17.74Z" style="fill:#ffa8a7"></path><polygon points="373.74 181.69 373.74 181.68 373.75 181.69 373.74 181.69" style="fill:#ffa8a7"></polygon><path d="M371.59,175.57l.11,4.78a7.48,7.48,0,0,1-2.3-3.61A3.32,3.32,0,0,0,371.59,175.57Z" style="fill:#37474f"></path><path d="M395.35,152.84l3.06-2.16a6.66,6.66,0,0,1-1.17,6.12,9.71,9.71,0,0,1-5.41,3.23,20.18,20.18,0,0,1-6.35.29,45.42,45.42,0,0,1-9.18-1.7,7.22,7.22,0,0,1-3.6-1.92,4.88,4.88,0,0,1-.19-5.7,7.11,7.11,0,0,1,5.07-3,19.08,19.08,0,0,1,6.1.49,18.23,18.23,0,0,0,6.1.44,6.34,6.34,0,0,0,4.92-3.3C396.43,148.49,395.35,152.84,395.35,152.84Z" style="fill:#37474f"></path><polygon points="387.61 167.22 392.11 172.75 387.98 174.23 387.61 167.22" style="fill:#f28f8f"></polygon><path d="M384.2,177l3.48,1.09a2.12,2.12,0,0,1-2.34,1.09A2,2,0,0,1,384.2,177Z" style="fill:#f28f8f"></path><path d="M384.2,177l3.48,1.09a2.12,2.12,0,0,1-2.34,1.09A2,2,0,0,1,384.2,177Z" style="opacity:0.30000000000000004"></path><path d="M386.47,179.08a1.91,1.91,0,0,1-1.13.07,1.76,1.76,0,0,1-1.13-1.59,2,2,0,0,1,1.34.25A2.06,2.06,0,0,1,386.47,179.08Z" style="fill:#f28f8f"></path><path d="M381.49,168.43a1.24,1.24,0,1,0,1.17-1.32A1.26,1.26,0,0,0,381.49,168.43Z" style="fill:#263238"></path><path d="M391.83,167.46a1.23,1.23,0,1,0,1.16-1.32A1.24,1.24,0,0,0,391.83,167.46Z" style="fill:#263238"></path><path d="M392.76,162.41l2.84,1.77a1.8,1.8,0,0,0-.64-1.93A2.07,2.07,0,0,0,392.76,162.41Z" style="fill:#263238"></path><path d="M382.19,162.84l-2.63,2.07a1.81,1.81,0,0,1,.43-2A2.05,2.05,0,0,1,382.19,162.84Z" style="fill:#263238"></path><path d="M365.28,168a3.4,3.4,0,0,1,1.71-1.81,2.18,2.18,0,0,1,.5-.2,3.18,3.18,0,0,1,2.85,1,5.62,5.62,0,0,1,1.38,2.79,22,22,0,0,1,.34,3.15,40,40,0,0,0,.88,5.65,7,7,0,0,0,3.52,4.58l.12.07a21.28,21.28,0,0,0,8.26,2.23v8.41l-11.66-6.9a2.83,2.83,0,0,1-1.38-2.38c0-1.35-.06-2.83-.09-4.2l-.11-4.78a3.32,3.32,0,0,1-2.19,1.17,2.93,2.93,0,0,1-1.15-.06,4.35,4.35,0,0,1-2.57-2.23,8.33,8.33,0,0,1-.82-3.39A7,7,0,0,1,365.28,168Z" style="fill:#ffa8a7"></path><path d="M374.92,183a7.85,7.85,0,0,1-1.44-3,7,7,0,0,0,3,3.13l.12.07a21.28,21.28,0,0,0,8.26,2.23v2.14a20.81,20.81,0,0,1-4.88-1A10.93,10.93,0,0,1,374.92,183Z" style="opacity:0.2"></path><path d="M327,223.76l-4.4-2.18a7.75,7.75,0,0,1-3.28-3.06L318,216.16a9.66,9.66,0,0,0-4-3.75,33.09,33.09,0,0,1-7-4.64h0a3.64,3.64,0,0,0,.57,4.57,25,25,0,0,0,2.86,2.29l-2.11.54a7.51,7.51,0,0,1-4.59-.28l-6-2.35a1.05,1.05,0,0,0-1.41,1.16,24,24,0,0,0,3,7.56,9,9,0,0,0,6.12,4.3c3.08.58,6.06,1,7.75,1.28a9.41,9.41,0,0,1,2.79.86l6.46,3.21Z" style="fill:#ffa8a7"></path><path d="M331.2,230.53a11,11,0,0,0,.77-5.73l8.25,3.92a170.19,170.19,0,0,0,3.5-18.28c1-8.32.77-13.91,11.47-16.61,0,0,7.21,11.89,2.08,22.41,0,7.75-2.27,26.17-9.93,29.13-6.35,2.45-10.83-3.59-20.51-9.84A11,11,0,0,0,331.2,230.53Z" style="fill:#455a64"></path><path d="M331.2,230.53a11,11,0,0,0,.77-5.73l8.25,3.92a170.19,170.19,0,0,0,3.5-18.28c1-8.32.77-13.91,11.47-16.61,0,0,7.21,11.89,2.08,22.41,0,7.75-2.27,26.17-9.93,29.13-6.35,2.45-10.83-3.59-20.51-9.84A11,11,0,0,0,331.2,230.53Z" style="fill:#fff;opacity:0.1"></path><path d="M345.77,234.2c-.29-1.24-2.34-4.09-5.55-5.48,0,0,.24-1,.61-2.54C342.49,227,346.59,229.52,345.77,234.2Z" style="opacity:0.2"></path><path d="M324.37,222.11l7.6,2.69a10.78,10.78,0,0,1-5.14,10.73,56.24,56.24,0,0,1-6.3-5S323.82,229.34,324.37,222.11Z" style="fill:#455a64"></path><path d="M413.9,213.52l-5.73,15.55.41-4.16a19,19,0,0,1,5.32-11.39Z" style="opacity:0.2"></path><path d="M421.8,220.7l-.19-6-3-4.52a2,2,0,0,0-3.63.42l-1.38,3.73a7.3,7.3,0,0,0,2.34,4.61A7.43,7.43,0,0,0,421.8,220.7Z" style="fill:#455a64"></path><path d="M415.94,219a7.3,7.3,0,0,1-2.34-4.61L407.79,230a7.07,7.07,0,0,0,.11,5.58h0a7.06,7.06,0,0,0,9.66,3.35l.77-.4a7.05,7.05,0,0,0,3.82-6.49l-.35-11.33A7.43,7.43,0,0,1,415.94,219Z" style="fill:#455a64"></path><path d="M415.94,219a7.3,7.3,0,0,1-2.34-4.61L407.79,230a7.07,7.07,0,0,0,.11,5.58h0a7.06,7.06,0,0,0,9.66,3.35l.77-.4a7.05,7.05,0,0,0,3.82-6.49l-.35-11.33A7.43,7.43,0,0,1,415.94,219Z" style="fill:#fff;opacity:0.1"></path><path d="M422.66,224.86l-1.06-.61a1.36,1.36,0,0,1-.66-1.15v-4.78l2.39,1.42,2.38-1.38v4.74a1.33,1.33,0,0,1-.66,1.15l-1.06.61A1.32,1.32,0,0,1,422.66,224.86Z" style="fill:#FFC100"></path><path d="M422.66,224.86l-1.06-.61a1.36,1.36,0,0,1-.66-1.15v-4.78l2.39,1.42,2.38-1.38v4.74a1.33,1.33,0,0,1-.66,1.15l-1.06.61A1.32,1.32,0,0,1,422.66,224.86Z" style="fill:#fff;opacity:0.30000000000000004"></path><path d="M421.62,203.9l2.6-.46,4.79,3.42a1.81,1.81,0,0,1,.77,1.49v10a1.83,1.83,0,0,1-1.09,1.67l-3.35,1.48a1.86,1.86,0,0,1-2-.34l-2.83-2.65a1.85,1.85,0,0,1-.6-1.36v-.91a7.36,7.36,0,0,1-2.62-2.86,6.35,6.35,0,0,1-.89-3.48h0A6.37,6.37,0,0,1,421.62,203.9Z" style="fill:#ffa8a7"></path><path d="M421.78,208.25v5.55a1.67,1.67,0,0,0,1.67,1.67h0a1.66,1.66,0,0,0,1.66-1.67v-5.93l.69,1.66v4.55a2.35,2.35,0,0,1-2.35,2.35h0a2.36,2.36,0,0,1-2.36-2.35v-2.29a3.62,3.62,0,0,1-2.5,2.23C421.09,212.1,421.78,208.25,421.78,208.25Z" style="fill:#f28f8f"></path><path d="M418.2,184.86l-.06,0h0a3.79,3.79,0,0,0-3.79.39,11.76,11.76,0,0,0-5.35,9.26,3.8,3.8,0,0,0,1.53,3.42L418,202.1l7.2-13.14Zm-8.61,9.26a8.43,8.43,0,0,1,.05-.86,8.43,8.43,0,0,0-.05.86,5.1,5.1,0,0,0,.06.8A5.1,5.1,0,0,1,409.59,194.12Z" style="fill:#FFC100"></path><path d="M418.2,184.86l-.06,0h0a3.79,3.79,0,0,0-3.79.39,11.76,11.76,0,0,0-5.35,9.26,3.8,3.8,0,0,0,1.53,3.42L418,202.1l7.2-13.14Zm-8.61,9.26a8.43,8.43,0,0,1,.05-.86,8.43,8.43,0,0,0-.05.86,5.1,5.1,0,0,0,.06.8A5.1,5.1,0,0,1,409.59,194.12Z" style="fill:#fff;opacity:0.30000000000000004"></path><path d="M425.87,187.24l-.07-.05h0c-1.23-.7-2.93-.59-4.81.49a14.94,14.94,0,0,0-6.77,11.73c0,2.12.75,3.62,1.94,4.33,12,8.61,19.24,21.72,19.24,21.72l17.18-32.87C446.31,194,434.56,192.44,425.87,187.24Z" style="fill:#FFC100"></path><path d="M425.87,187.24l-.07-.05h0c-1.23-.7-2.93-.59-4.81.49a14.94,14.94,0,0,0-6.77,11.73c0,2.12.75,3.62,1.94,4.33,12,8.61,19.24,21.72,19.24,21.72l17.18-32.87C446.31,194,434.56,192.44,425.87,187.24Z" style="fill:#fff;opacity:0.5"></path><path d="M436.17,215.66a17.58,17.58,0,0,0-.13,2.15,14,14,0,0,0,.14,2,14,14,0,0,1-.14-2A17.58,17.58,0,0,1,436.17,215.66Z" style="fill:#455a64"></path><path d="M458.07,198a6.4,6.4,0,0,0-.65-.72s0,0,0,0a5.94,5.94,0,0,0-.69-.55l-.39-.25a5.86,5.86,0,0,0-1.77-.65,6.56,6.56,0,0,0-1.49-.13,7.89,7.89,0,0,0-1.07.1,9.88,9.88,0,0,0-1.12.25l-.57.17a12.72,12.72,0,0,0-1.18.48,11.66,11.66,0,0,0-1.21.63,18.54,18.54,0,0,0-3,2.14c-.38.33-.75.68-1.12,1.05s-.71.74-1.06,1.13c-.17.2-.34.39-.51.6a28,28,0,0,0-2.32,3.24c-.28.46-.55.92-.81,1.39s-.49,1-.72,1.44-.44,1-.64,1.45a26.13,26.13,0,0,0-1.18,3.71c-.11.49-.21,1-.29,1.48,0,.24-.07.49-.1.73a17.58,17.58,0,0,0-.13,2.15,14,14,0,0,0,.14,2,10.17,10.17,0,0,0,.59,2.28,8.53,8.53,0,0,0,.46,1,7.29,7.29,0,0,0,.55.85,5.85,5.85,0,0,0,4,2.29,6.72,6.72,0,0,0,1,0,8,8,0,0,0,1.07-.09,9.73,9.73,0,0,0,1.11-.25c.19,0,.39-.11.58-.18a13.6,13.6,0,0,0,2.39-1.1,21.35,21.35,0,0,0,5.66-4.92c.17-.2.33-.41.5-.62.32-.41.64-.84.94-1.28s.6-.89.88-1.34a24.47,24.47,0,0,0,3.87-12.36,12.19,12.19,0,0,0-.55-3.75A7.63,7.63,0,0,0,458.07,198Z" style="fill:#FFC100"></path><path d="M458.07,198a6.4,6.4,0,0,0-.65-.72s0,0,0,0a5.94,5.94,0,0,0-.69-.55l-.39-.25a5.86,5.86,0,0,0-1.77-.65,6.56,6.56,0,0,0-1.49-.13,7.89,7.89,0,0,0-1.07.1,9.88,9.88,0,0,0-1.12.25l-.57.17a12.72,12.72,0,0,0-1.18.48,11.66,11.66,0,0,0-1.21.63,18.54,18.54,0,0,0-3,2.14c-.38.33-.75.68-1.12,1.05s-.71.74-1.06,1.13c-.17.2-.34.39-.51.6a28,28,0,0,0-2.32,3.24c-.28.46-.55.92-.81,1.39s-.49,1-.72,1.44-.44,1-.64,1.45a26.13,26.13,0,0,0-1.18,3.71c-.11.49-.21,1-.29,1.48,0,.24-.07.49-.1.73a17.58,17.58,0,0,0-.13,2.15,14,14,0,0,0,.14,2,10.17,10.17,0,0,0,.59,2.28,8.53,8.53,0,0,0,.46,1,7.29,7.29,0,0,0,.55.85,5.85,5.85,0,0,0,4,2.29,6.72,6.72,0,0,0,1,0,8,8,0,0,0,1.07-.09,9.73,9.73,0,0,0,1.11-.25c.19,0,.39-.11.58-.18a13.6,13.6,0,0,0,2.39-1.1,21.35,21.35,0,0,0,5.66-4.92c.17-.2.33-.41.5-.62.32-.41.64-.84.94-1.28s.6-.89.88-1.34a24.47,24.47,0,0,0,3.87-12.36,12.19,12.19,0,0,0-.55-3.75A7.63,7.63,0,0,0,458.07,198Z" style="opacity:0.5"></path><polygon points="440.88 200.4 447.08 204.1 441.37 213.82 434.55 210.15 440.88 200.4" style="fill:#FFC100"></polygon><polygon points="440.88 200.4 447.08 204.1 441.37 213.82 434.55 210.15 440.88 200.4" style="opacity:0.30000000000000004"></polygon><path d="M447.55,204.54a1.7,1.7,0,0,0-.22-.24h0l-.23-.19L447,204a1.75,1.75,0,0,0-.59-.22,2.1,2.1,0,0,0-.51-.05l-.36,0a2.74,2.74,0,0,0-.37.08l-.2.06a3.2,3.2,0,0,0-.39.16,3.17,3.17,0,0,0-.41.21,6.15,6.15,0,0,0-1,.72c-.13.12-.26.23-.38.36l-.36.38c-.06.06-.11.13-.17.2a9.38,9.38,0,0,0-.78,1.09c-.1.16-.19.31-.27.47s-.17.32-.25.49-.15.32-.21.49a8.25,8.25,0,0,0-.4,1.25c0,.16-.07.33-.1.49l0,.25a6.11,6.11,0,0,0-.05.73,4.8,4.8,0,0,0,.05.67c0,.14.05.27.08.4l.12.37.15.32a2.9,2.9,0,0,0,.19.29,2,2,0,0,0,1.36.77,1.9,1.9,0,0,0,.34,0l.36,0a2.74,2.74,0,0,0,.37-.08l.2-.06a4.37,4.37,0,0,0,.8-.37,7.41,7.41,0,0,0,1.91-1.66l.17-.21.32-.43c.1-.15.2-.3.29-.45a8.25,8.25,0,0,0,1.31-4.17,4.33,4.33,0,0,0-.19-1.26A2.55,2.55,0,0,0,447.55,204.54Z" style="fill:#FFC100"></path><path d="M457.52,194.72l-.14-.09.14.1Z" style="fill:#FFC100"></path><path d="M434.55,218.68c0-8.49,5.94-18.84,13.33-23.1,3.69-2.13,7-2.34,9.46-1L454.5,193h0c-2.43-1.39-5.78-1.19-9.48,1-7.39,4.27-13.36,14.61-13.34,23.1,0,4.09,1.42,7,3.7,8.45h0l.16.09.14.09,2.69,1.57h0C436,225.79,434.56,222.85,434.55,218.68Z" style="fill:#FFC100"></path><path d="M434.55,218.68c0-8.49,5.94-18.84,13.33-23.1,3.69-2.13,7-2.34,9.46-1L454.5,193h0c-2.43-1.39-5.78-1.19-9.48,1-7.39,4.27-13.36,14.61-13.34,23.1,0,4.09,1.42,7,3.7,8.45h0l.16.09.14.09,2.69,1.57h0C436,225.79,434.56,222.85,434.55,218.68Z" style="fill:#fff;opacity:0.30000000000000004"></path><path d="M457.52,194.73l-.14-.1,0,0c-2.43-1.37-5.77-1.16-9.46,1-7.39,4.26-13.36,14.61-13.33,23.1,0,4.17,1.46,7.11,3.82,8.53s5.84,1.29,9.6-.88c7.39-4.27,13.36-14.61,13.33-23.1C461.29,199.08,459.85,196.15,457.52,194.73Zm-1.58,21.72c-.28.45-.57.9-.88,1.34s-.62.87-.94,1.28c-.17.21-.33.42-.5.62a21.35,21.35,0,0,1-5.66,4.92,13.6,13.6,0,0,1-2.39,1.1c-.19.07-.39.13-.58.18a9.73,9.73,0,0,1-1.11.25,8,8,0,0,1-1.07.09,6.72,6.72,0,0,1-1,0,5.85,5.85,0,0,1-4-2.29,7.29,7.29,0,0,1-.55-.85,8.53,8.53,0,0,1-.46-1,10.17,10.17,0,0,1-.59-2.28,14,14,0,0,1-.14-2,17.58,17.58,0,0,1,.13-2.15c0-.24.06-.49.1-.73.08-.49.18-1,.29-1.48a26.13,26.13,0,0,1,1.18-3.71c.2-.49.41-1,.64-1.45s.47-1,.72-1.44.53-.93.81-1.39a28,28,0,0,1,2.32-3.24c.17-.21.34-.4.51-.6.35-.39.7-.77,1.06-1.13s.74-.72,1.12-1.05a18.54,18.54,0,0,1,3-2.14,11.66,11.66,0,0,1,1.21-.63,12.72,12.72,0,0,1,1.18-.48l.57-.17a9.88,9.88,0,0,1,1.12-.25,7.89,7.89,0,0,1,1.07-.1,6.56,6.56,0,0,1,1.49.13,5.86,5.86,0,0,1,1.77.65l.39.25a5.94,5.94,0,0,1,.69.55s0,0,0,0a6.4,6.4,0,0,1,.65.72,7.63,7.63,0,0,1,1.19,2.33,12.19,12.19,0,0,1,.55,3.75h0A24.47,24.47,0,0,1,455.94,216.45Z" style="fill:#FFC100"></path></g></svg>
